<?xml version="1.0" encoding="UTF-8" standalone="no"?>
<!DOCTYPE svg PUBLIC "-//W3C//DTD SVG 1.1//EN" "http://www.w3.org/Graphics/SVG/1.1/DTD/svg11.dtd">
<svg width="100%" height="100%" viewBox="0 0 2522 1529" version="1.1" xmlns="http://www.w3.org/2000/svg" xmlns:xlink="http://www.w3.org/1999/xlink" xml:space="preserve" xmlns:serif="http://www.serif.com/" style="fill-rule:evenodd;clip-rule:evenodd;stroke-linejoin:round;stroke-miterlimit:2;">
    <g transform="matrix(1,0,0,1,-244.623,-235.682)">
        <g>
            <path d="M441.611,1760.86C441.611,1760.86 153.885,1402.66 413.914,1122.79C729.885,782.695 391.974,588.671 638.643,361.714C840.442,176.042 1081.42,209.615 1545.34,370.661C1904.05,495.184 2045.95,158.563 2408.48,330.399C2645.46,442.726 2472.34,787.362 2608.1,1014.24C2766.17,1278.41 2766.17,1621.58 2562.76,1760.86L441.611,1760.86Z" style="fill:rgb(235,243,250);fill-rule:nonzero;"/>
            <path d="M2286.87,1151.79C2286.87,1151.79 2258.07,1118.19 2285.09,1096.85C2285.09,1096.85 2304.83,1084.9 2320.93,1085.87C2320.93,1085.87 2298.12,1124.11 2305.5,1127.91C2312.88,1131.72 2327.84,1083.47 2327.84,1083.47C2327.84,1083.47 2372.76,1079.11 2387.21,1086.06C2387.21,1086.06 2348.81,1117.48 2356.9,1119.35C2364.98,1121.22 2406.46,1090.38 2406.46,1090.38C2406.46,1090.38 2448.27,1097.5 2446.04,1123C2443.81,1148.5 2429.41,1156.38 2423.07,1155.7C2416.74,1155.02 2379.71,1140.88 2378.9,1146.07C2378.09,1151.26 2400.39,1168.21 2416,1169.01C2416,1169.01 2386.52,1201.51 2366.93,1192.13C2347.34,1182.75 2345.67,1167.88 2333.46,1162.3C2321.25,1156.72 2310.83,1156.74 2315.87,1162.43C2320.91,1168.11 2343.01,1173.64 2349.99,1186C2356.97,1198.35 2363.24,1206.68 2342.97,1203.63C2322.71,1200.58 2289.76,1185.75 2288.32,1168.77L2286.87,1151.79Z" style="fill:rgb(200,219,244);fill-rule:nonzero;"/>
            <path d="M2425.5,1123.69C2425.5,1123.69 2311.95,1119.31 2286.87,1151.79C2286.87,1151.79 2281.32,1168.4 2264.26,1183.52L2261.6,1190.77C2261.6,1190.77 2281.27,1170.02 2288.32,1168.77C2288.32,1168.77 2277.3,1128.54 2425.5,1123.69Z" style="fill:rgb(200,219,244);fill-rule:nonzero;"/>
            <path d="M2264.26,1183.52C2264.26,1183.52 2239.88,1201.54 2238.19,1233.75L2242.62,1234.15C2242.62,1234.15 2250.4,1200.85 2264.47,1187.82C2278.54,1174.8 2264.26,1183.52 2264.26,1183.52Z" style="fill:rgb(200,219,244);fill-rule:nonzero;"/>
            <path d="M2186.18,1109.53C2186.18,1109.53 2231.99,1083.88 2210.61,1049.06C2210.61,1049.06 2193.51,1027.68 2175.18,1022.18C2175.18,1022.18 2184.96,1074.1 2175.18,1075.33C2165.41,1076.55 2168.46,1016.69 2168.46,1016.69C2168.46,1016.69 2120.21,993.474 2101.27,995.306C2101.27,995.306 2131.2,1046 2121.43,1044.78C2111.65,1043.56 2078.06,992.251 2078.06,992.251C2078.06,992.251 2028.58,983.089 2020.64,1012.41C2012.7,1041.73 2025.53,1056.39 2032.86,1058.22C2040.19,1060.05 2087.22,1059.44 2086,1065.55C2084.78,1071.66 2053.01,1081.43 2035.3,1075.94C2035.3,1075.94 2054.85,1124.19 2080.5,1121.75C2106.16,1119.3 2114.1,1103.42 2129.98,1102.2C2145.86,1100.98 2157.47,1105.26 2149.53,1109.53C2141.59,1113.81 2114.71,1110.93 2101.88,1121.84C2089.05,1132.74 2078.67,1139.46 2102.49,1144.35C2126.31,1149.24 2169.07,1146.18 2177.63,1127.86L2186.18,1109.53Z" style="fill:rgb(200,219,244);fill-rule:nonzero;"/>
            <path d="M2043.24,1021.57C2043.24,1021.57 2171.52,1063.11 2186.18,1109.53C2186.18,1109.53 2185.57,1130.3 2198.39,1154.12L2198.39,1163.29C2198.39,1163.29 2184.96,1132.13 2177.63,1127.86C2177.63,1127.86 2206.33,1087.54 2043.24,1021.57Z" style="fill:rgb(200,219,244);fill-rule:nonzero;"/>
            <path d="M2198.39,1154.12C2198.39,1154.12 2218.17,1184.16 2206.9,1220.73L2201.81,1219.36C2201.81,1219.36 2206.75,1179.09 2196.4,1158.83C2186.05,1138.57 2198.39,1154.12 2198.39,1154.12Z" style="fill:rgb(200,219,244);fill-rule:nonzero;"/>
            <path d="M2259.06,1074.15C2259.06,1074.15 2198.67,1040.33 2226.85,994.436C2226.85,994.436 2249.4,966.254 2273.55,959.008C2273.55,959.008 2260.67,1027.45 2273.55,1029.06C2286.44,1030.67 2282.41,951.761 2282.41,951.761C2282.41,951.761 2346.02,921.164 2370.98,923.579C2370.98,923.579 2331.53,990.41 2344.41,988.8C2357.29,987.189 2401.58,919.553 2401.58,919.553C2401.58,919.553 2466.8,907.476 2477.27,946.125C2487.73,984.773 2470.83,1004.1 2461.16,1006.51C2451.5,1008.93 2389.5,1008.12 2391.11,1016.18C2392.72,1024.23 2434.59,1037.11 2457.94,1029.86C2457.94,1029.86 2432.18,1093.47 2398.36,1090.25C2364.54,1087.03 2354.07,1066.1 2333.14,1064.49C2312.2,1062.88 2296.9,1068.51 2307.37,1074.15C2317.84,1079.79 2353.27,1076 2370.18,1090.37C2387.09,1104.75 2400.77,1113.6 2369.37,1120.05C2337.97,1126.49 2281.61,1122.46 2270.33,1098.31L2259.06,1074.15Z" style="fill:rgb(212,228,248);fill-rule:nonzero;"/>
            <path d="M2447.47,958.202C2447.47,958.202 2278.38,1012.96 2259.06,1074.15C2259.06,1074.15 2259.87,1101.53 2242.96,1132.93L2242.96,1145.01C2242.96,1145.01 2260.67,1103.94 2270.33,1098.31C2270.33,1098.31 2232.49,1045.16 2447.47,958.202Z" style="fill:rgb(212,228,248);fill-rule:nonzero;"/>
            <path d="M2242.96,1132.93C2242.96,1132.93 2216.88,1172.53 2231.75,1220.73L2238.46,1218.93C2238.46,1218.93 2231.94,1165.84 2245.59,1139.13C2259.23,1112.43 2242.96,1132.93 2242.96,1132.93Z" style="fill:rgb(212,228,248);fill-rule:nonzero;"/>
            <path d="M2257.03,1325.26C2322.36,1325.26 2375.32,1272.3 2375.32,1206.97L2138.73,1206.97C2138.73,1272.3 2191.69,1325.26 2257.03,1325.26Z" style="fill:rgb(212,228,248);fill-rule:nonzero;"/>
            <path d="M2376.95,1331.28L2137.1,1331.28C2137.1,1323.22 2143.63,1316.68 2151.69,1316.68L2362.36,1316.68C2370.42,1316.68 2376.95,1323.22 2376.95,1331.28Z" style="fill:rgb(212,228,248);fill-rule:nonzero;"/>
            <rect x="2134.84" y="1206.96" width="243.17" height="3.63" style="fill:rgb(159,193,244);fill-rule:nonzero;"/>
            <path d="M541.528,1757.74L957,1757.74L891.816,1226.85L476.344,1226.85L541.528,1757.74Z" style="fill:rgb(164,196,224);fill-rule:nonzero;"/>
            <path d="M559.524,1757.74L974.997,1757.74L909.813,1226.85L494.34,1226.85L559.524,1757.74Z" style="fill:rgb(200,219,244);fill-rule:nonzero;"/>
            <path d="M580.521,1730.26L947.252,1730.26L888.534,1252.03L521.802,1252.03L580.521,1730.26Z" style="fill:rgb(212,228,248);fill-rule:nonzero;"/>
            <path d="M546.234,1505.72L926.057,1505.72L922.769,1478.94L542.945,1478.94L546.234,1505.72Z" style="fill:rgb(200,219,244);fill-rule:nonzero;"/>
            <path d="M919.526,1305.96L909.813,1226.85L830.703,1226.85L919.526,1305.96Z" style="fill:rgb(183,207,234);fill-rule:nonzero;"/>
            <path d="M504.054,1305.96L494.34,1226.85L573.45,1226.85L504.054,1305.96Z" style="fill:rgb(183,207,234);fill-rule:nonzero;"/>
            <path d="M895.896,1757.81L975.005,1757.81L965.292,1678.7L895.896,1757.81Z" style="fill:rgb(183,207,234);fill-rule:nonzero;"/>
            <path d="M638.643,1757.81L559.533,1757.81L549.82,1678.7L638.643,1757.81Z" style="fill:rgb(183,207,234);fill-rule:nonzero;"/>
            <path d="M735.33,1757.76L1031.69,1757.76L985.19,1379.08L688.834,1379.08L735.33,1757.76Z" style="fill:rgb(164,196,224);fill-rule:nonzero;"/>
            <path d="M748.167,1757.76L1044.52,1757.76L998.027,1379.08L701.671,1379.08L748.167,1757.76Z" style="fill:rgb(200,219,244);fill-rule:nonzero;"/>
            <path d="M763.143,1738.16L1024.73,1738.16L982.849,1397.04L721.259,1397.04L763.143,1738.16Z" style="fill:rgb(212,228,248);fill-rule:nonzero;"/>
            <path d="M738.687,1578L1009.61,1578L1007.27,1558.89L736.341,1558.89L738.687,1578Z" style="fill:rgb(200,219,244);fill-rule:nonzero;"/>
            <path d="M1004.96,1435.51L998.027,1379.08L941.598,1379.08L1004.96,1435.51Z" style="fill:rgb(183,207,234);fill-rule:nonzero;"/>
            <path d="M708.599,1435.51L701.671,1379.08L758.1,1379.08L708.599,1435.51Z" style="fill:rgb(183,207,234);fill-rule:nonzero;"/>
            <path d="M988.101,1757.81L1044.53,1757.81L1037.6,1701.38L988.101,1757.81Z" style="fill:rgb(183,207,234);fill-rule:nonzero;"/>
            <path d="M804.602,1757.81L748.173,1757.81L741.244,1701.38L804.602,1757.81Z" style="fill:rgb(183,207,234);fill-rule:nonzero;"/>
            <path d="M924.073,611.434L750.146,611.434C742.161,611.434 735.628,604.901 735.628,596.917L735.628,429.046C735.628,421.062 742.161,414.529 750.146,414.529L924.073,414.529C932.057,414.529 938.59,421.062 938.59,429.046L938.59,596.917C938.59,604.901 932.057,611.434 924.073,611.434Z" style="fill:rgb(192,216,251);fill-rule:nonzero;"/>
            <path d="M916.538,602.903L757.68,602.903C750.387,602.903 744.42,596.937 744.42,589.644L744.42,436.318C744.42,429.026 750.387,423.059 757.68,423.059L916.538,423.059C923.831,423.059 929.797,429.026 929.797,436.318L929.797,589.644C929.797,596.937 923.831,602.903 916.538,602.903Z" style="fill:rgb(223,235,253);fill-rule:nonzero;"/>
            <path d="M832.905,441.03C832.905,438.708 834.787,436.826 837.109,436.826C839.431,436.826 841.313,438.708 841.313,441.03C841.313,443.352 839.431,445.234 837.109,445.234C834.787,445.234 832.905,443.352 832.905,441.03Z" style="fill:rgb(183,211,243);fill-rule:nonzero;"/>
            <path d="M866.83,446.973C867.957,444.943 870.517,444.212 872.546,445.34C874.576,446.468 875.307,449.027 874.179,451.057C873.051,453.087 870.492,453.818 868.462,452.689C866.433,451.562 865.701,449.002 866.83,446.973Z" style="fill:rgb(183,211,243);fill-rule:nonzero;"/>
            <path d="M895.894,470.063C897.845,468.805 900.447,469.366 901.706,471.317C902.964,473.268 902.403,475.87 900.452,477.129C898.5,478.388 895.898,477.827 894.64,475.875C893.381,473.924 893.942,471.322 895.894,470.063Z" style="fill:rgb(183,211,243);fill-rule:nonzero;"/>
            <path d="M910.29,505.802C912.611,505.802 914.494,507.685 914.494,510.007C914.494,512.329 912.611,514.211 910.29,514.211C907.968,514.211 906.085,512.329 906.085,510.007C906.085,507.685 907.968,505.802 910.29,505.802Z" style="fill:rgb(183,211,243);fill-rule:nonzero;"/>
            <path d="M902.939,547.278C904.581,548.92 904.581,551.582 902.939,553.224C901.297,554.866 898.635,554.866 896.993,553.224C895.352,551.582 895.352,548.92 896.993,547.278C898.635,545.636 901.297,545.636 902.939,547.278Z" style="fill:rgb(183,211,243);fill-rule:nonzero;"/>
            <path d="M876.538,573.748C878.18,575.39 878.18,578.052 876.538,579.694C874.896,581.335 872.234,581.335 870.593,579.694C868.951,578.052 868.951,575.39 870.593,573.748C872.234,572.106 874.896,572.106 876.538,573.748Z" style="fill:rgb(183,211,243);fill-rule:nonzero;"/>
            <path d="M832.905,587.392C832.905,585.069 834.787,583.188 837.109,583.188C839.431,583.188 841.313,585.069 841.313,587.392C841.313,589.713 839.431,591.596 837.109,591.596C834.787,591.596 832.905,589.713 832.905,587.392Z" style="fill:rgb(183,211,243);fill-rule:nonzero;"/>
            <path d="M807.255,446.973C806.127,444.943 803.567,444.212 801.538,445.34C799.508,446.468 798.777,449.027 799.905,451.057C801.033,453.087 803.592,453.818 805.622,452.689C807.652,451.562 808.383,449.002 807.255,446.973Z" style="fill:rgb(183,211,243);fill-rule:nonzero;"/>
            <path d="M778.19,470.063C776.239,468.805 773.637,469.366 772.378,471.317C771.12,473.268 771.681,475.87 773.632,477.129C775.583,478.388 778.186,477.827 779.444,475.875C780.703,473.924 780.142,471.322 778.19,470.063Z" style="fill:rgb(183,211,243);fill-rule:nonzero;"/>
            <path d="M763.794,505.802C761.472,505.802 759.59,507.685 759.59,510.007C759.59,512.329 761.472,514.211 763.794,514.211C766.116,514.211 767.999,512.329 767.999,510.007C767.999,507.685 766.116,505.802 763.794,505.802Z" style="fill:rgb(183,211,243);fill-rule:nonzero;"/>
            <path d="M771.145,547.278C769.503,548.92 769.503,551.582 771.145,553.224C772.787,554.866 775.449,554.866 777.091,553.224C778.732,551.582 778.732,548.92 777.091,547.278C775.449,545.636 772.787,545.636 771.145,547.278Z" style="fill:rgb(183,211,243);fill-rule:nonzero;"/>
            <path d="M797.546,573.748C795.904,575.39 795.904,578.052 797.546,579.694C799.188,581.335 801.85,581.335 803.491,579.694C805.133,578.052 805.133,575.39 803.491,573.748C801.85,572.106 799.188,572.106 797.546,573.748Z" style="fill:rgb(183,211,243);fill-rule:nonzero;"/>
            <path d="M835.976,510.007C835.976,507.685 837.858,505.802 840.18,505.802C842.502,505.802 844.384,507.685 844.384,510.007C844.384,512.329 842.502,514.211 840.18,514.211C837.858,514.211 835.976,512.329 835.976,510.007Z" style="fill:rgb(183,211,243);fill-rule:nonzero;"/>
            <rect x="839.606" y="457.484" width="1.148" height="52.522" style="fill:rgb(183,211,243);fill-rule:nonzero;"/>
            <path d="M840.713,511.287L838.586,508.578L866.432,486.72L868.558,489.429L840.713,511.287Z" style="fill:rgb(183,211,243);fill-rule:nonzero;"/>
            <path d="M2095.2,1338.05L2095.2,1348.69C2095.2,1352.42 2096.41,1355.46 2097.88,1355.46L2486.3,1355.46C2487.77,1355.46 2488.98,1352.42 2488.98,1348.69L2488.98,1338.05C2488.98,1334.33 2487.77,1331.28 2486.3,1331.28L2097.88,1331.28C2096.41,1331.28 2095.2,1334.33 2095.2,1338.05Z" style="fill:rgb(154,191,226);fill-rule:nonzero;"/>
            <path d="M2095.2,1338.05L2095.2,1348.69C2095.2,1352.42 2096.31,1355.46 2097.66,1355.46L2406.02,1355.46C2407.38,1355.46 2408.48,1352.42 2408.48,1348.69L2408.48,1338.05C2408.48,1334.33 2407.38,1331.28 2406.02,1331.28L2097.66,1331.28C2096.31,1331.28 2095.2,1334.33 2095.2,1338.05Z" style="fill:rgb(186,212,244);fill-rule:nonzero;"/>
            <rect x="2193.51" y="1355.46" width="275.76" height="401.93" style="fill:rgb(200,219,244);fill-rule:nonzero;"/>
            <rect x="2116.23" y="1355.46" width="275.76" height="401.93" style="fill:rgb(223,235,253);fill-rule:nonzero;"/>
            <path d="M2374.51,1369.48L2133.7,1369.48L2133.7,1732.55L2374.51,1732.55L2374.51,1369.48ZM2131.04,1366.82L2377.17,1366.82L2377.17,1735.2L2131.04,1735.2L2131.04,1366.82Z" style="fill:rgb(183,211,243);fill-rule:nonzero;"/>
            <rect x="2132.37" y="1488.68" width="243.47" height="2.66" style="fill:rgb(183,211,243);fill-rule:nonzero;"/>
            <rect x="2132.37" y="1612.92" width="243.47" height="2.66" style="fill:rgb(183,211,243);fill-rule:nonzero;"/>
            <path d="M2229.16,1390.58L2274.34,1390.58C2276.53,1390.58 2278.32,1388.78 2278.32,1386.59C2278.32,1384.4 2276.53,1382.6 2274.34,1382.6L2229.16,1382.6C2226.97,1382.6 2225.17,1384.4 2225.17,1386.59C2225.17,1388.78 2226.97,1390.58 2229.16,1390.58Z" style="fill:rgb(183,211,243);fill-rule:nonzero;"/>
            <path d="M2229.16,1512.07L2274.34,1512.07C2276.53,1512.07 2278.32,1510.28 2278.32,1508.08C2278.32,1505.89 2276.53,1504.1 2274.34,1504.1L2229.16,1504.1C2226.97,1504.1 2225.17,1505.89 2225.17,1508.08C2225.17,1510.28 2226.97,1512.07 2229.16,1512.07Z" style="fill:rgb(183,211,243);fill-rule:nonzero;"/>
            <path d="M2229.16,1638.72L2274.34,1638.72C2276.53,1638.72 2278.32,1636.92 2278.32,1634.73C2278.32,1632.54 2276.53,1630.75 2274.34,1630.75L2229.16,1630.75C2226.97,1630.75 2225.17,1632.54 2225.17,1634.73C2225.17,1636.92 2226.97,1638.72 2229.16,1638.72Z" style="fill:rgb(183,211,243);fill-rule:nonzero;"/>
            <path d="M2387.29,1288.18L2378.1,1289.65L2360.69,1181.26L2369.89,1179.79L2387.29,1288.18Z" style="fill:rgb(154,191,226);fill-rule:nonzero;"/>
            <path d="M2362.22,1161.44L2360.69,1181.26L2369.89,1179.79L2362.22,1161.44Z" style="fill:rgb(183,207,234);fill-rule:nonzero;"/>
            <path d="M2413.13,1289.5L2403.98,1287.8L2423.98,1179.86L2433.14,1181.56L2413.13,1289.5Z" style="fill:rgb(154,191,226);fill-rule:nonzero;"/>
            <path d="M2432.08,1161.71L2423.98,1179.86L2433.14,1181.56L2432.08,1161.71Z" style="fill:rgb(183,207,234);fill-rule:nonzero;"/>
            <path d="M2445.42,1273.36L2436.26,1271.66L2456.27,1163.72L2465.42,1165.42L2445.42,1273.36Z" style="fill:rgb(135,166,216);fill-rule:nonzero;"/>
            <path d="M2464.37,1145.56L2456.27,1163.72L2465.42,1165.42L2464.37,1145.56Z" style="fill:rgb(183,207,234);fill-rule:nonzero;"/>
            <rect x="2395.17" y="1225.55" width="73.36" height="105.73" style="fill:rgb(145,178,226);fill-rule:nonzero;"/>
            <rect x="2358.49" y="1225.55" width="73.36" height="105.73" style="fill:rgb(183,207,234);fill-rule:nonzero;"/>
            <path d="M1384.02,880.294C1384.02,880.294 1407.92,866.366 1421.08,871.151C1434.25,875.937 1456.38,891.49 1446.81,898.07C1437.24,904.65 1425.55,898.527 1421.68,898.07C1417.81,897.614 1410.48,913.907 1387.96,908.681C1365.45,903.454 1384.02,880.294 1384.02,880.294Z" style="fill:rgb(255,178,125);fill-rule:nonzero;"/>
            <path d="M1203.33,555.178C1203.33,555.178 1161.77,522.704 1116.9,535.465C1116.9,535.465 1099.47,508.433 1068.45,522.948C1024.98,543.287 1056.09,588.904 1078.43,579.334C1078.43,579.334 1077.82,590.699 1066.66,613.829C1055.49,636.959 1078.58,685.982 1125.16,669.746C1171.74,653.51 1211.89,635.287 1211.89,635.287C1211.89,635.287 1248.91,581.327 1203.33,555.178Z" style="fill:rgb(22,53,96);fill-rule:nonzero;"/>
            <path d="M1200.19,892.892C1200.19,892.892 1207.03,906.448 1219.45,922.022C1234.42,940.766 1257.49,962.42 1286.46,966.694C1300.3,968.735 1313.84,965.758 1326.27,960.232C1326.31,960.221 1326.32,960.221 1326.32,960.221C1361.51,944.601 1387.96,908.681 1387.96,908.681C1394.17,891.764 1384.02,880.294 1384.02,880.294C1384.02,880.294 1312.97,896.275 1306.2,892.892C1299.43,889.508 1259.66,793.603 1251.77,778.431C1236.22,748.521 1209.13,739.794 1209.13,739.794L1200.19,892.892Z" style="fill:rgb(115,154,240);fill-rule:nonzero;"/>
            <path d="M1219.45,922.022C1232.36,946.824 1257.49,962.42 1286.46,966.694C1300.3,968.735 1313.84,965.758 1326.27,960.232C1324.9,960.412 1289.76,964.754 1275.75,939.695C1261.46,914.128 1246.01,873.527 1224.79,887.061C1215.63,892.903 1216.03,907.417 1219.45,922.022Z" style="fill:rgb(93,129,219);fill-rule:nonzero;"/>
            <path d="M935.111,1659.85C935.111,1659.85 913.431,1679.63 917.661,1693.69C921.891,1707.75 941.457,1717.12 944.1,1734.3C946.744,1751.48 957.32,1760.86 966.838,1760.86L1012.22,1760.86C1012.22,1760.86 1019.22,1748.77 1002.3,1745.12C985.38,1741.48 979,1721.29 980.058,1702.54C981.115,1683.8 978.471,1658.8 978.471,1658.8L942.514,1650.47L935.111,1659.85Z" style="fill:rgb(41,74,127);fill-rule:nonzero;"/>
            <path d="M1118.61,1670.26C1118.61,1670.26 1110.81,1754.08 1120.33,1758.77L1242.14,1758.52C1242.14,1758.52 1242.14,1744.46 1222.58,1741.34C1203.01,1738.21 1168.64,1726.76 1162.82,1701.24C1157.01,1675.73 1118.61,1670.26 1118.61,1670.26Z" style="fill:rgb(41,74,127);fill-rule:nonzero;"/>
            <path d="M1220.87,996.175L1120.88,989.547L1064.53,985.802C1064.53,985.802 1058.19,945.795 1055.36,927.585C1052.16,907.031 1048.2,892.639 1045.58,879.263C1044.28,872.635 1043.3,866.246 1042.89,859.499C1041.07,828.787 1024.91,836.36 1024.91,836.36L1075.92,734.989C1151.48,717.02 1209.13,739.799 1209.13,739.799C1209.13,739.799 1228.94,775.033 1241.91,825.784C1254.89,876.535 1220.87,996.175 1220.87,996.175Z" style="fill:rgb(115,154,240);fill-rule:nonzero;"/>
            <path d="M1136.42,986.481L1064.53,985.802C1064.53,985.802 1058.19,945.795 1055.36,927.585C1052.16,907.031 1048.2,892.639 1045.58,879.263L1045.5,876.727C1045.5,876.727 1064.16,850.334 1074.51,853.564C1084.87,856.794 1066.21,905.249 1081.82,922.597C1093.13,935.159 1132.95,945.926 1136.42,986.481Z" style="fill:rgb(93,129,219);fill-rule:nonzero;"/>
            <path d="M1218.08,980.378C1218.08,980.378 1253.19,1089.69 1255.45,1126.91C1257.71,1164.13 1188.32,1655.61 1185.53,1672.76C1182.9,1688.92 1162.82,1699.23 1162.82,1699.23C1162.82,1699.23 1153.59,1704.67 1140.42,1700.95C1122.13,1695.79 1116.36,1689.61 1116.36,1689.61C1116.36,1689.61 1089.02,1339.09 1105.94,1213.87C1122.85,1088.66 1123.05,980.378 1123.05,980.378L1218.08,980.378Z" style="fill:rgb(237,125,43);fill-rule:nonzero;"/>
            <path d="M1069.28,977.119C1069.28,977.119 1015.71,1049 1010.72,1097.58C1005.73,1146.17 1002.89,1316.84 992.246,1364.21C981.606,1411.58 942.514,1502.73 942.514,1650.47C942.514,1650.47 946.577,1658.94 959.124,1663.45C963.136,1664.89 968.512,1666.29 973.73,1667.49C984.077,1669.86 994.693,1664.81 999.415,1655.3C1025.84,1602.09 1110.03,1430.46 1114.35,1394.84C1117.4,1369.63 1143.98,1202.77 1201.96,1104.86C1215.88,1081.35 1188.16,1023.84 1188.16,1023.84L1069.28,977.119Z" style="fill:rgb(249,151,70);fill-rule:nonzero;"/>
            <path d="M1112.34,729.218C1116.61,718.226 1122.03,689.454 1121.95,669.113L1125.16,669.695L1179.15,679.531C1179.15,679.531 1177.92,695.164 1177.88,709.89L1177.88,710.256C1177.82,723.046 1177.94,733.333 1176.48,736.817C1171.34,749.094 1108.8,738.344 1112.34,729.218Z" style="fill:rgb(255,178,125);fill-rule:nonzero;"/>
            <path d="M1179.15,679.531C1179.15,679.531 1177.92,695.164 1177.88,709.89C1147.67,709.106 1131.7,683.75 1125.16,669.695L1179.15,679.531Z" style="fill:rgb(232,148,91);fill-rule:nonzero;"/>
            <path d="M1189.24,695.593C1189.24,695.593 1117.76,696.772 1117.71,652.247C1117.66,607.721 1108.4,577.885 1154.04,575.25C1199.67,572.614 1208.56,589.595 1212.19,604.453C1215.82,619.311 1207.83,694.139 1189.24,695.593Z" style="fill:rgb(255,178,125);fill-rule:nonzero;"/>
            <path d="M1186.59,574.159C1186.59,574.159 1167.02,626.396 1136.98,634.12C1106.95,641.844 1093.92,633.796 1093.92,633.796C1093.92,633.796 1116.96,615.495 1121.74,583.546C1121.74,583.546 1171.83,549.296 1186.59,574.159Z" style="fill:rgb(22,53,96);fill-rule:nonzero;"/>
            <path d="M1181.74,578.4C1181.74,578.4 1196.25,583.826 1202.23,594.41C1208.07,604.761 1213.04,618.469 1211.89,635.287C1211.89,635.287 1226.63,599.781 1210.06,579.696C1192.49,558.398 1181.74,578.4 1181.74,578.4Z" style="fill:rgb(22,53,96);fill-rule:nonzero;"/>
            <path d="M1175.27,669.162C1175.27,669.162 1176.51,674.409 1189.56,673.6C1189.56,673.6 1200.52,672.922 1200.19,667.155C1200.19,667.155 1189.56,663.053 1175.27,669.162Z" style="fill:white;fill-rule:nonzero;"/>
            <path d="M1088.63,983.608C1088.63,983.608 1147.72,963.872 1171.44,999.166C1176.47,1006.65 1139.4,1010.37 1119.59,1007.74C1114.87,1007.11 1081.42,1000.39 1081.42,1000.39L1088.63,983.608Z" style="fill:rgb(255,178,125);fill-rule:nonzero;"/>
            <path d="M1075.92,734.99C1075.92,734.99 1035.4,742.316 1007.7,795.18C983.974,840.466 949.373,912.499 949.373,925.854C949.373,939.209 969.986,980.378 1080.7,1004.05C1080.7,1004.05 1092.15,992.003 1091.45,982.478C1091.45,982.478 1022.34,923.119 1022.53,916.181C1022.88,903.058 1033.86,885.734 1094.54,825.04C1111.03,808.539 1075.92,734.99 1075.92,734.99Z" style="fill:rgb(115,154,240);fill-rule:nonzero;"/>
            <path d="M1154.77,996.318C1157.44,1001.97 1153.88,1009.25 1146.82,1012.59C1139.75,1015.93 1131.87,1014.05 1129.2,1008.4C1126.53,1002.75 1130.09,995.466 1137.15,992.128C1144.21,988.792 1152.1,990.667 1154.77,996.318ZM1289.14,981.3C1250.37,912.688 1101.82,920.312 1097.55,938.142C1093.28,955.97 1131.3,973.943 1121.91,990.09C1105.4,1018.48 1061.22,998.772 1048.95,1022.7C1036.68,1046.64 1122.9,1147.67 1202.62,1141.74C1282.34,1135.82 1327.9,1049.91 1289.14,981.3Z" style="fill:rgb(255,227,202);fill-rule:nonzero;"/>
            <path d="M1115.11,1084.29C1112.12,1080.82 1109.12,1076.68 1109.67,1072.13C1110.2,1067.74 1114.08,1064.34 1118.31,1063C1122.53,1061.67 1127.08,1061.99 1131.5,1062.33C1134.19,1062.53 1136.89,1062.74 1139.59,1062.94C1141.32,1063.08 1143.12,1063.23 1144.61,1064.12C1146.01,1064.95 1146.98,1066.34 1147.87,1067.71C1148.73,1069.02 1149.58,1070.37 1150.02,1071.87C1154.7,1087.91 1123.18,1093.65 1115.11,1084.29Z" style="fill:rgb(35,56,98);fill-rule:nonzero;"/>
            <path d="M1273.95,1052.91C1269.59,1054.29 1264.6,1055.41 1260.64,1053.11C1256.81,1050.88 1255.22,1045.97 1255.67,1041.56C1256.11,1037.16 1258.2,1033.11 1260.25,1029.18C1261.51,1026.78 1262.76,1024.39 1264.02,1021.99C1264.82,1020.45 1265.67,1018.86 1267.08,1017.84C1268.4,1016.88 1270.06,1016.55 1271.66,1016.26C1273.21,1015.99 1274.78,1015.74 1276.34,1015.94C1292.92,1017.98 1285.74,1049.19 1273.95,1052.91Z" style="fill:rgb(183,207,234);fill-rule:nonzero;"/>
            <path d="M1168.83,1092.19C1172.29,1089.54 1176.84,1088.09 1181.1,1089.04C1183.31,1089.53 1185.34,1090.63 1187.5,1091.35C1191.11,1092.55 1195.22,1092.74 1198.17,1095.14C1201.67,1097.99 1202.38,1103.05 1202.06,1107.55C1201.86,1110.34 1201.34,1113.16 1200.08,1115.66C1196.28,1123.22 1186.24,1126.13 1178.13,1123.71C1170.79,1121.53 1165.11,1115.69 1162.43,1108.62C1159.88,1101.87 1163.21,1096.49 1168.83,1092.19Z" style="fill:rgb(247,130,72);fill-rule:nonzero;"/>
            <path d="M1238.1,977.425C1240.83,975.339 1244.41,974.192 1247.77,974.938C1249.52,975.328 1251.12,976.197 1252.82,976.763C1255.66,977.709 1258.9,977.857 1261.23,979.752C1263.99,981.999 1264.55,985.989 1264.3,989.537C1264.14,991.739 1263.73,993.958 1262.74,995.931C1259.74,1001.9 1251.83,1004.18 1245.43,1002.28C1239.64,1000.56 1235.16,995.958 1233.05,990.381C1231.04,985.058 1233.66,980.814 1238.1,977.425Z" style="fill:rgb(115,154,240);fill-rule:nonzero;"/>
            <path d="M1188.84,955.356C1191.57,953.27 1195.15,952.124 1198.51,952.871C1200.26,953.26 1201.86,954.13 1203.56,954.694C1206.4,955.641 1209.64,955.788 1211.97,957.683C1214.73,959.93 1215.3,963.922 1215.04,967.469C1214.88,969.671 1214.47,971.89 1213.48,973.862C1210.48,979.828 1202.57,982.115 1196.17,980.211C1190.39,978.491 1185.9,973.89 1183.79,968.313C1181.78,962.99 1184.4,958.745 1188.84,955.356Z" style="fill:rgb(235,243,250);fill-rule:nonzero;"/>
            <path d="M1226.74,1101.27C1223.8,1097.78 1223.72,1092.53 1225.47,1088.31C1227.21,1084.09 1230.49,1080.71 1233.87,1077.63C1236.22,1075.48 1238.7,1073.4 1241.63,1072.14C1244.56,1070.88 1248.02,1070.55 1250.9,1071.92C1253.77,1073.29 1255.79,1076.63 1255.03,1079.72C1254,1083.93 1249.34,1087.1 1247.35,1090.95C1245.44,1094.62 1245.47,1099 1243.67,1102.57C1242.05,1105.79 1240.4,1107.85 1236.48,1108.34C1230.62,1109.07 1230.04,1105.2 1226.74,1101.27Z" style="fill:rgb(249,151,70);fill-rule:nonzero;"/>
            <path d="M1106.13,979.586C1106.13,979.586 1126.77,975.259 1130.67,975.824C1137,976.744 1150.4,979.408 1151.92,980.484C1153.43,981.561 1143.98,987.521 1136.42,986.481C1131.27,985.773 1120.48,993.144 1116.74,995.581C1113.01,998.017 1106.13,979.586 1106.13,979.586Z" style="fill:rgb(255,178,125);fill-rule:nonzero;"/>
            <path d="M1461.41,916.446L1450.51,928.288L1301.67,788.668C1300.26,787.341 1300.18,785.121 1301.49,783.693C1302.62,782.47 1304.51,782.356 1305.77,783.437L1461.41,916.446Z" style="fill:rgb(249,151,70);fill-rule:nonzero;"/>
            <path d="M1450.51,928.288L1461.41,916.446L1447.56,904.611L1437.89,916.449L1450.51,928.288Z" style="fill:rgb(115,154,240);fill-rule:nonzero;"/>
            <path d="M1461.41,916.446C1461.41,916.446 1469.88,911.421 1484.63,921.609C1499.39,931.796 1509.93,928.288 1509.93,928.288C1509.93,928.288 1497.28,940.228 1482.18,941.281C1467.07,942.335 1455.74,940.939 1450.51,928.288L1461.41,916.446Z" style="fill:rgb(22,53,96);fill-rule:nonzero;"/>
            <path d="M1398.95,889.933C1398.95,889.933 1399.67,889.846 1400.89,889.695C1407.83,888.845 1431.15,885.956 1435.04,885.109C1439.63,884.112 1432.3,892.045 1424.47,894.282C1416.65,896.519 1421.63,902.856 1412.98,902.058C1404.34,901.261 1398.95,889.933 1398.95,889.933Z" style="fill:rgb(255,178,125);fill-rule:nonzero;"/>
            <path d="M1937.33,1254.39L1436.46,1254.39L1515.04,614.387L2015.91,614.387L1937.33,1254.39Z" style="fill:rgb(145,97,64);fill-rule:nonzero;"/>
            <path d="M1959.85,1254.39L1458.99,1254.39L1537.57,614.387L2038.43,614.387L1959.85,1254.39Z" style="fill:rgb(216,162,125);fill-rule:nonzero;"/>
            <path d="M1934.54,1221.26L1492.43,1221.26L1563.22,644.738L2005.33,644.738L1934.54,1221.26Z" style="fill:rgb(229,189,158);fill-rule:nonzero;"/>
            <path d="M1975.87,950.573L1517.98,950.573L1521.95,918.286L1979.84,918.286L1975.87,950.573Z" style="fill:rgb(216,162,125);fill-rule:nonzero;"/>
            <path d="M1525.86,709.757L1537.57,614.387L1632.94,614.387L1525.86,709.757Z" style="fill:rgb(198,145,109);fill-rule:nonzero;"/>
            <path d="M2026.72,709.757L2038.43,614.387L1943.06,614.387L2026.72,709.757Z" style="fill:rgb(198,145,109);fill-rule:nonzero;"/>
            <path d="M1554.34,1254.47L1458.97,1254.47L1470.68,1159.1L1554.34,1254.47Z" style="fill:rgb(198,145,109);fill-rule:nonzero;"/>
            <path d="M1864.47,1254.47L1959.84,1254.47L1971.55,1159.1L1864.47,1254.47Z" style="fill:rgb(198,145,109);fill-rule:nonzero;"/>
            <path d="M1519.85,1757.39C1516.18,1757.39 1513.44,1754.01 1514.22,1750.42L1713.26,828.149C1714.3,823.335 1718.56,819.899 1723.49,819.899L1729.71,819.899C1734.66,819.899 1738.34,824.491 1737.26,829.326L1526.62,1751.99C1525.9,1755.15 1523.09,1757.39 1519.85,1757.39Z" style="fill:rgb(22,53,96);fill-rule:nonzero;"/>
            <path d="M1814.91,1758.83C1811.41,1758.75 1808.62,1755.89 1808.63,1752.39L1811.9,829.479C1811.94,825.128 1815.5,821.636 1819.85,821.684L1825.23,821.743C1829.71,821.793 1833.31,825.479 1833.25,829.969L1820.19,1753.72C1820.15,1756.59 1817.78,1758.89 1814.91,1758.83Z" style="fill:rgb(22,53,96);fill-rule:nonzero;"/>
            <path d="M1816.69,1416.32L1596.42,1416.23L1596.43,1399.45L1816.69,1399.54L1816.69,1416.32Z" style="fill:rgb(22,53,96);fill-rule:nonzero;"/>
            <path d="M1714.33,1408.92L1697.68,1406.85L1804.85,542.632L1821.5,544.696L1714.33,1408.92Z" style="fill:rgb(22,53,96);fill-rule:nonzero;"/>
            <path d="M1822.16,892.528L1700.77,892.479L1709.17,875.703L1822.17,875.752L1822.16,892.528Z" style="fill:rgb(22,53,96);fill-rule:nonzero;"/>
            <path d="M1991.44,1753.2L1760.16,969.121C1759.79,967.876 1759.85,966.544 1760.32,965.335L1764.98,953.424C1767.02,948.211 1774.52,948.57 1776.05,953.955L2002.68,1749.95C2003.74,1753.68 2000.93,1757.39 1997.05,1757.39C1994.46,1757.39 1992.18,1755.69 1991.44,1753.2Z" style="fill:rgb(22,53,96);fill-rule:nonzero;"/>
            <path d="M1929.35,1267.54L1444.78,1267.54C1442.35,1267.54 1440.39,1265.57 1440.39,1263.15C1440.39,1256.07 1446.13,1250.33 1453.2,1250.33L1934.28,1250.33C1937.59,1250.33 1940.28,1253.02 1940.28,1256.33L1940.28,1256.61C1940.28,1262.64 1935.39,1267.54 1929.35,1267.54Z" style="fill:rgb(22,53,96);fill-rule:nonzero;"/>
            <rect x="1761.47" y="601.679" width="90.21" height="12.708" style="fill:rgb(22,53,96);fill-rule:nonzero;"/>
            <path d="M2763.26,1764.32L247.529,1764.32C245.931,1764.32 244.623,1763.01 244.623,1761.41L244.623,1760.3C244.623,1758.7 245.931,1757.39 247.529,1757.39L2763.26,1757.39C2764.86,1757.39 2766.17,1758.7 2766.17,1760.3L2766.17,1761.41C2766.17,1763.01 2764.86,1764.32 2763.26,1764.32Z" style="fill:rgb(46,53,82);fill-rule:nonzero;"/>
        </g>
    </g>
</svg>
